<svg width="24" height="24" viewBox="0 0 24 24" fill="none" xmlns="http://www.w3.org/2000/svg">
<path d="M21.75 22.4063C21.75 22.4312 21.7401 22.455 21.7225 22.4726C21.705 22.4902 21.6811 22.5001 21.6562 22.5001H14.25V23.2501H21.6562C21.8799 23.2498 22.0944 23.1608 22.2526 23.0026C22.4108 22.8445 22.4997 22.63 22.5 22.4063V6.38269H21.75V22.4063Z" fill="#808080"/>
<path d="M21.6562 0.75H6.84375C6.62005 0.750261 6.40559 0.839239 6.24742 0.997416C6.08924 1.15559 6.00026 1.37005 6 1.59375V8.25H6.75V1.59375C6.75 1.56889 6.75988 1.54504 6.77746 1.52746C6.79504 1.50988 6.81889 1.5 6.84375 1.5H9.75V2.625H7.875C7.77554 2.625 7.68016 2.66451 7.60983 2.73484C7.53951 2.80516 7.5 2.90054 7.5 3V8.25H8.25V3.375H9.75V3.65625C9.75026 3.87995 9.83924 4.09441 9.99742 4.25258C10.1556 4.41076 10.3701 4.49974 10.5938 4.5H17.9062C18.1299 4.49974 18.3444 4.41076 18.5026 4.25258C18.6608 4.09441 18.7497 3.87995 18.75 3.65625V3.375H20.25V20.625H15V21.375H20.625C20.7245 21.375 20.8198 21.3355 20.8902 21.2652C20.9605 21.1948 21 21.0995 21 21V3C21 2.90054 20.9605 2.80516 20.8902 2.73484C20.8198 2.66451 20.7245 2.625 20.625 2.625H18.75V1.5H21.6562C21.6811 1.5 21.705 1.50988 21.7225 1.52746C21.7401 1.54504 21.75 1.56889 21.75 1.59375V5.625H22.5V1.59375C22.4997 1.37005 22.4108 1.15559 22.2526 0.997416C22.0944 0.839239 21.8799 0.750261 21.6562 0.75ZM18 3.65625C18 3.68111 17.9901 3.70496 17.9725 3.72254C17.955 3.74012 17.9311 3.75 17.9062 3.75H10.5938C10.5689 3.75 10.545 3.74012 10.5275 3.72254C10.5099 3.70496 10.5 3.68111 10.5 3.65625V1.5H18V3.65625ZM6.75 15.75H5.25C5.15054 15.75 5.05516 15.7895 4.98484 15.8598C4.91451 15.9302 4.875 16.0255 4.875 16.125V17.25H3.75C3.65054 17.25 3.55516 17.2895 3.48484 17.3598C3.41451 17.4302 3.375 17.5255 3.375 17.625V19.125C3.375 19.2245 3.41451 19.3198 3.48484 19.3902C3.55516 19.4605 3.65054 19.5 3.75 19.5H4.875V20.625C4.875 20.7245 4.91451 20.8198 4.98484 20.8902C5.05516 20.9605 5.15054 21 5.25 21H6.75C6.84946 21 6.94484 20.9605 7.01517 20.8902C7.08549 20.8198 7.125 20.7245 7.125 20.625V19.5H8.25C8.34946 19.5 8.44484 19.4605 8.51517 19.3902C8.58549 19.3198 8.625 19.2245 8.625 19.125V17.625C8.625 17.5255 8.58549 17.4302 8.51517 17.3598C8.44484 17.2895 8.34946 17.25 8.25 17.25H7.125V16.125C7.125 16.0255 7.08549 15.9302 7.01517 15.8598C6.94484 15.7895 6.84946 15.75 6.75 15.75ZM7.875 18V18.75H6.75C6.65054 18.75 6.55516 18.7895 6.48483 18.8598C6.41451 18.9302 6.375 19.0255 6.375 19.125V20.25H5.625V19.125C5.625 19.0255 5.58549 18.9302 5.51516 18.8598C5.44484 18.7895 5.34946 18.75 5.25 18.75H4.125V18H5.25C5.34946 18 5.44484 17.9605 5.51516 17.8902C5.58549 17.8198 5.625 17.7245 5.625 17.625V16.5H6.375V17.625C6.375 17.7245 6.41451 17.8198 6.48483 17.8902C6.55516 17.9605 6.65054 18 6.75 18H7.875Z" fill="#808080"/>
<path d="M11.625 18C11.2358 17.9995 10.8514 18.0861 10.5 18.2535V14.625C10.5 14.5758 10.4903 14.527 10.4715 14.4815C10.4526 14.436 10.425 14.3947 10.3902 14.3598L9.75 13.7197V12.7447C9.95615 12.7214 10.1465 12.6231 10.2848 12.4684C10.4231 12.3138 10.4997 12.1137 10.5 11.9063V9.84375C10.4997 9.62005 10.4108 9.40559 10.2526 9.24742C10.0944 9.08924 9.87995 9.00026 9.65625 9H2.34375C2.12005 9.00026 1.90559 9.08924 1.74742 9.24742C1.58924 9.40559 1.50026 9.62005 1.5 9.84375V11.9063C1.50025 12.1137 1.57683 12.3139 1.71515 12.4685C1.85346 12.6231 2.04384 12.7215 2.25 12.7448V13.7198L1.60983 14.3598C1.57501 14.3947 1.54739 14.436 1.52854 14.4815C1.5097 14.527 1.5 14.5758 1.5 14.625V16.5H2.25V14.7803L2.7803 14.25H7.875V13.5H3V12.75H9V13.875C9 13.9242 9.0097 13.973 9.02854 14.0185C9.04739 14.064 9.07501 14.1053 9.10983 14.1402L9.75 14.7803V18.7897C9.50862 19.0357 9.31815 19.3269 9.18948 19.6467C9.06081 19.9664 8.99647 20.3084 9.00016 20.6531C9.00384 20.9977 9.07547 21.3382 9.21094 21.6552C9.34642 21.9721 9.54307 22.2592 9.78966 22.5H2.34375C2.31889 22.5 2.29504 22.4901 2.27746 22.4725C2.25988 22.455 2.25 22.4311 2.25 22.4063V17.25H1.5V22.4063C1.50026 22.6299 1.58924 22.8444 1.74742 23.0026C1.90559 23.1608 2.12005 23.2497 2.34375 23.25H11.625C12.3212 23.25 12.9889 22.9734 13.4812 22.4812C13.9734 21.9889 14.25 21.3212 14.25 20.625C14.25 19.9288 13.9734 19.2611 13.4812 18.7688C12.9889 18.2766 12.3212 18 11.625 18ZM2.34375 12C2.31889 12 2.29504 11.9901 2.27746 11.9725C2.25988 11.955 2.25 11.9311 2.25 11.9063V9.84375C2.25 9.81889 2.25988 9.79504 2.27746 9.77746C2.29504 9.75988 2.31889 9.75 2.34375 9.75H9.65625C9.68111 9.75 9.70496 9.75988 9.72254 9.77746C9.74012 9.79504 9.75 9.81889 9.75 9.84375V11.9063C9.75 11.9311 9.74012 11.955 9.72254 11.9725C9.70496 11.9901 9.68111 12 9.65625 12H2.34375ZM9.75 20.625C9.7499 20.3597 9.80621 20.0975 9.91519 19.8557C10.0242 19.6138 10.1833 19.3979 10.3821 19.2223L12.2189 22.4036C11.937 22.4977 11.6368 22.5234 11.343 22.4786C11.0492 22.4339 10.7703 22.3199 10.5292 22.1462C10.2881 21.9725 10.0917 21.744 9.95622 21.4795C9.82075 21.2151 9.75007 20.9222 9.75 20.625ZM12.8679 22.0277L11.0311 18.8464C11.441 18.7093 11.8857 18.7182 12.2898 18.8713C12.6939 19.0245 13.0327 19.3126 13.2488 19.6869C13.4649 20.0612 13.545 20.4986 13.4756 20.9252C13.4062 21.3518 13.1915 21.7413 12.8679 22.0277ZM16.875 7.875C16.875 7.35583 16.721 6.84831 16.4326 6.41663C16.1442 5.98495 15.7342 5.6485 15.2545 5.44982C14.7749 5.25114 14.2471 5.19915 13.7379 5.30044C13.2287 5.40173 12.761 5.65173 12.3938 6.01885C12.0267 6.38596 11.7767 6.85369 11.6754 7.36289C11.5742 7.87209 11.6261 8.39989 11.8248 8.87954C12.0235 9.3592 12.3599 9.76917 12.7916 10.0576C13.2233 10.346 13.7308 10.5 14.25 10.5C14.9459 10.4992 15.6132 10.2224 16.1053 9.73028C16.5974 9.23817 16.8742 8.57095 16.875 7.875ZM12.375 7.875C12.375 7.50416 12.485 7.14165 12.691 6.83331C12.897 6.52496 13.1899 6.28464 13.5325 6.14273C13.8751 6.00081 14.2521 5.96368 14.6158 6.03603C14.9795 6.10838 15.3136 6.28695 15.5758 6.54918C15.838 6.8114 16.0166 7.14549 16.089 7.50921C16.1613 7.87292 16.1242 8.24992 15.9823 8.59253C15.8404 8.93514 15.6 9.22798 15.2917 9.43401C14.9834 9.64003 14.6208 9.75 14.25 9.75C13.7529 9.74944 13.2763 9.55172 12.9248 9.20021C12.5733 8.8487 12.3756 8.37211 12.375 7.875Z" fill="#808080"/>
<path d="M14.625 9V8.25H15.375V7.5H14.625V6.75H13.875V7.5H13.125V8.25H13.875V9H14.625ZM11.25 12H16.875V12.75H11.25V12ZM17.625 12H19.5V12.75H17.625V12ZM12 15.75H16.875V16.5H12V15.75ZM17.625 15.75H19.5V16.5H17.625V15.75ZM11.25 13.875H13.5V14.625H11.25V13.875ZM14.25 13.875H19.5V14.625H14.25V13.875ZM11.25 2.25H12V3H11.25V2.25ZM16.5 2.25H17.25V3H16.5V2.25ZM12.75 2.25H15.75V3H12.75V2.25ZM14.25 17.625H19.5V18.375H14.25V17.625Z" fill="#808080"/>
</svg>
