<svg width="26" height="26" viewBox="0 0 26 26" fill="none" xmlns="http://www.w3.org/2000/svg">
<path d="M22.866 11.0358H22.0558V10.9941H13.003V15.0058H18.6876C17.8583 17.3411 15.6298 19.0175 13.003 19.0175C9.67005 19.0175 6.9678 16.3232 6.9678 13C6.9678 9.6768 9.67005 6.98244 13.003 6.98244C14.5415 6.98244 15.9411 7.56113 17.0068 8.50639L19.8519 5.66962C18.0554 4.00025 15.6524 2.97075 13.003 2.97075C7.4481 2.97075 2.94434 7.46134 2.94434 13C2.94434 18.5386 7.4481 23.0292 13.003 23.0292C18.5579 23.0292 23.0616 18.5386 23.0616 13C23.0616 12.3275 22.9922 11.6711 22.866 11.0358Z" fill="#FFC107"/>
<path d="M4.104 8.33188L7.40877 10.7484C8.30299 8.54099 10.4686 6.98244 13.0029 6.98244C14.5414 6.98244 15.941 7.56113 17.0067 8.50639L19.8518 5.66962C18.0554 4.00025 15.6523 2.97075 13.0029 2.97075C9.13936 2.97075 5.78883 5.14559 4.104 8.33188Z" fill="#FF3D00"/>
<path d="M13.0031 23.0292C15.6012 23.0292 17.962 22.0378 19.7469 20.4256L16.6337 17.799C15.5899 18.5905 14.3144 19.0186 13.0031 19.0175C10.3868 19.0175 8.16535 17.3542 7.32847 15.0329L4.04834 17.5528C5.71305 20.8007 9.09376 23.0292 13.0031 23.0292Z" fill="#4CAF50"/>
<path d="M22.8659 11.0358H22.0557V10.9941H13.0029V15.0058H18.6876C18.2909 16.1173 17.5763 17.0885 16.6321 17.7995L16.6336 17.7985L19.7468 20.4251C19.5265 20.6247 23.0616 18.0146 23.0616 13C23.0616 12.3275 22.9922 11.6711 22.8659 11.0358Z" fill="#1976D2"/>
</svg>
