<svg width="24" height="24" viewBox="0 0 24 24" fill="none" xmlns="http://www.w3.org/2000/svg">
<path d="M15 22.75H9C3.57 22.75 1.25 20.43 1.25 15V8.99997C1.25 3.56997 3.57 1.24997 9 1.24997H15C20.43 1.24997 22.75 3.56997 22.75 8.99997V15C22.75 20.43 20.43 22.75 15 22.75ZM9 2.74997C4.39 2.74997 2.75 4.38997 2.75 8.99997V15C2.75 19.61 4.39 21.25 9 21.25H15C19.61 21.25 21.25 19.61 21.25 15V8.99997C21.25 4.38997 19.61 2.74997 15 2.74997H9Z" fill="#808085"/>
<path d="M15.5801 19.25C15.1701 19.25 14.8301 18.91 14.8301 18.5V14.6C14.8301 14.19 15.1701 13.85 15.5801 13.85C15.9901 13.85 16.3301 14.19 16.3301 14.6V18.5C16.3301 18.91 15.9901 19.25 15.5801 19.25Z" fill="#808085"/>
<path d="M15.5801 8.20003C15.1701 8.20003 14.8301 7.86003 14.8301 7.45003V5.50003C14.8301 5.09003 15.1701 4.75003 15.5801 4.75003C15.9901 4.75003 16.3301 5.09003 16.3301 5.50003V7.45003C16.3301 7.86003 15.9901 8.20003 15.5801 8.20003Z" fill="#808085"/>
<path d="M15.58 13.4C13.73 13.4 12.23 11.9 12.23 10.05C12.23 8.20001 13.73 6.70001 15.58 6.70001C17.43 6.70001 18.93 8.20001 18.93 10.05C18.93 11.9 17.42 13.4 15.58 13.4ZM15.58 8.20001C14.56 8.20001 13.73 9.03001 13.73 10.05C13.73 11.07 14.56 11.9 15.58 11.9C16.6 11.9 17.43 11.07 17.43 10.05C17.43 9.03001 16.59 8.20001 15.58 8.20001Z" fill="#808085"/>
<path d="M8.41992 19.25C8.00992 19.25 7.66992 18.91 7.66992 18.5V16.55C7.66992 16.14 8.00992 15.8 8.41992 15.8C8.82992 15.8 9.16992 16.14 9.16992 16.55V18.5C9.16992 18.91 8.83992 19.25 8.41992 19.25Z" fill="#808085"/>
<path d="M8.41992 10.15C8.00992 10.15 7.66992 9.81003 7.66992 9.40003V5.50003C7.66992 5.09003 8.00992 4.75003 8.41992 4.75003C8.82992 4.75003 9.16992 5.09003 9.16992 5.50003V9.40003C9.16992 9.81003 8.83992 10.15 8.41992 10.15Z" fill="#808085"/>
<path d="M8.41982 17.3C6.56982 17.3 5.06982 15.8 5.06982 13.95C5.06982 12.1 6.56982 10.6 8.41982 10.6C10.2698 10.6 11.7698 12.1 11.7698 13.95C11.7698 15.8 10.2698 17.3 8.41982 17.3ZM8.41982 12.1C7.39982 12.1 6.56982 12.93 6.56982 13.95C6.56982 14.97 7.39982 15.8 8.41982 15.8C9.43982 15.8 10.2698 14.97 10.2698 13.95C10.2698 12.93 9.44982 12.1 8.41982 12.1Z" fill="#808085"/>
</svg>
