<svg width="24" height="24" viewBox="0 0 24 24" fill="none" xmlns="http://www.w3.org/2000/svg">
<path d="M16.9897 9.70996H7.00977C6.59977 9.70996 6.25977 9.36996 6.25977 8.95996C6.25977 8.54996 6.59977 8.20996 7.00977 8.20996H16.9897C17.3997 8.20996 17.7397 8.54996 17.7397 8.95996C17.7397 9.36996 17.3997 9.70996 16.9897 9.70996Z" fill="url(#paint0_linear_434_4179)"/>
<path d="M12 9.71027C11.59 9.71027 11.25 9.37027 11.25 8.96027V7.28027C11.25 6.87027 11.59 6.53027 12 6.53027C12.41 6.53027 12.75 6.87027 12.75 7.28027V8.96027C12.75 9.37027 12.41 9.71027 12 9.71027Z" fill="url(#paint1_linear_434_4179)"/>
<path d="M7 17.4694C6.59 17.4694 6.25 17.1294 6.25 16.7194C6.25 16.3094 6.59 15.9694 7 15.9694C10.72 15.9694 13.75 12.8195 13.75 8.93945C13.75 8.52945 14.09 8.18945 14.5 8.18945C14.91 8.18945 15.25 8.52945 15.25 8.93945C15.25 13.6495 11.55 17.4694 7 17.4694Z" fill="url(#paint2_linear_434_4179)"/>
<path d="M17.0002 17.4702C15.0302 17.4702 13.2002 16.4903 11.8602 14.7003C11.6102 14.3703 11.6802 13.9003 12.0102 13.6503C12.3402 13.4003 12.8102 13.4702 13.0602 13.8002C14.1202 15.2002 15.5202 15.9702 17.0102 15.9702C17.4202 15.9702 17.7602 16.3102 17.7602 16.7202C17.7602 17.1302 17.4102 17.4702 17.0002 17.4702Z" fill="url(#paint3_linear_434_4179)"/>
<path d="M12 22.75C6.07 22.75 1.25 17.93 1.25 12C1.25 6.07 6.07 1.25 12 1.25C17.93 1.25 22.75 6.07 22.75 12C22.75 17.93 17.93 22.75 12 22.75ZM12 2.75C6.9 2.75 2.75 6.9 2.75 12C2.75 17.1 6.9 21.25 12 21.25C17.1 21.25 21.25 17.1 21.25 12C21.25 6.9 17.1 2.75 12 2.75Z" fill="url(#paint4_linear_434_4179)"/>
<defs>
<linearGradient id="paint0_linear_434_4179" x1="11.9998" y1="8.20996" x2="11.9998" y2="9.70996" gradientUnits="userSpaceOnUse">
<stop stop-color="#61C9E9"/>
<stop offset="1" stop-color="#4FA5D8"/>
</linearGradient>
<linearGradient id="paint1_linear_434_4179" x1="12" y1="6.53027" x2="12" y2="9.71027" gradientUnits="userSpaceOnUse">
<stop stop-color="#61C9E9"/>
<stop offset="1" stop-color="#4FA5D8"/>
</linearGradient>
<linearGradient id="paint2_linear_434_4179" x1="10.75" y1="8.18945" x2="10.75" y2="17.4694" gradientUnits="userSpaceOnUse">
<stop stop-color="#61C9E9"/>
<stop offset="1" stop-color="#4FA5D8"/>
</linearGradient>
<linearGradient id="paint3_linear_434_4179" x1="14.7351" y1="13.5" x2="14.7351" y2="17.4702" gradientUnits="userSpaceOnUse">
<stop stop-color="#61C9E9"/>
<stop offset="1" stop-color="#4FA5D8"/>
</linearGradient>
<linearGradient id="paint4_linear_434_4179" x1="12" y1="1.25" x2="12" y2="22.75" gradientUnits="userSpaceOnUse">
<stop stop-color="#61C9E9"/>
<stop offset="1" stop-color="#4FA5D8"/>
</linearGradient>
</defs>
</svg>
